<svg id="visual" viewBox="0 0 900 600" width="900" height="600" xmlns="http://www.w3.org/2000/svg" xmlns:xlink="http://www.w3.org/1999/xlink" version="1.1"><rect x="0" y="0" width="900" height="600" fill="#CCCCCC"></rect><path d="M0 291L13.7 306.3C27.3 321.7 54.7 352.3 82 370.8C109.3 389.3 136.7 395.7 163.8 397.2C191 398.7 218 395.3 245.2 386.5C272.3 377.7 299.7 363.3 327 353.7C354.3 344 381.7 339 409 347.7C436.3 356.3 463.7 378.7 491 380.8C518.3 383 545.7 365 573 362.5C600.3 360 627.7 373 654.8 373C682 373 709 360 736.2 361.7C763.3 363.3 790.7 379.7 818 371.2C845.3 362.7 872.7 329.3 886.3 312.7L900 296L900 601L886.3 601C872.7 601 845.3 601 818 601C790.7 601 763.3 601 736.2 601C709 601 682 601 654.8 601C627.7 601 600.3 601 573 601C545.7 601 518.3 601 491 601C463.7 601 436.3 601 409 601C381.7 601 354.3 601 327 601C299.7 601 272.3 601 245.2 601C218 601 191 601 163.8 601C136.7 601 109.3 601 82 601C54.7 601 27.3 601 13.7 601L0 601Z" fill="#015d49"></path><path d="M0 413L13.7 419C27.3 425 54.7 437 82 442.5C109.3 448 136.7 447 163.8 439.5C191 432 218 418 245.2 416.3C272.3 414.7 299.7 425.3 327 419C354.3 412.7 381.7 389.3 409 381.3C436.3 373.3 463.7 380.7 491 381.2C518.3 381.7 545.7 375.3 573 376.3C600.3 377.3 627.7 385.7 654.8 392.5C682 399.3 709 404.7 736.2 395.5C763.3 386.3 790.7 362.7 818 360.5C845.3 358.3 872.7 377.7 886.3 387.3L900 397L900 601L886.3 601C872.7 601 845.3 601 818 601C790.7 601 763.3 601 736.2 601C709 601 682 601 654.8 601C627.7 601 600.3 601 573 601C545.7 601 518.3 601 491 601C463.7 601 436.3 601 409 601C381.7 601 354.3 601 327 601C299.7 601 272.3 601 245.2 601C218 601 191 601 163.8 601C136.7 601 109.3 601 82 601C54.7 601 27.3 601 13.7 601L0 601Z" fill="#006a53"></path><path d="M0 396L13.7 402.5C27.3 409 54.7 422 82 430.5C109.3 439 136.7 443 163.8 441.7C191 440.3 218 433.7 245.2 441.2C272.3 448.7 299.7 470.3 327 475C354.3 479.7 381.7 467.3 409 452.7C436.3 438 463.7 421 491 422.3C518.3 423.7 545.7 443.3 573 454.7C600.3 466 627.7 469 654.8 460.3C682 451.7 709 431.3 736.2 429.8C763.3 428.3 790.7 445.7 818 447C845.3 448.3 872.7 433.7 886.3 426.3L900 419L900 601L886.3 601C872.7 601 845.3 601 818 601C790.7 601 763.3 601 736.2 601C709 601 682 601 654.8 601C627.7 601 600.3 601 573 601C545.7 601 518.3 601 491 601C463.7 601 436.3 601 409 601C381.7 601 354.3 601 327 601C299.7 601 272.3 601 245.2 601C218 601 191 601 163.8 601C136.7 601 109.3 601 82 601C54.7 601 27.3 601 13.7 601L0 601Z" fill="#00785e"></path><path d="M0 492L13.7 494.7C27.3 497.3 54.7 502.7 82 500.7C109.3 498.7 136.7 489.3 163.8 485.8C191 482.3 218 484.7 245.2 493.3C272.3 502 299.7 517 327 513.7C354.3 510.3 381.7 488.7 409 485.2C436.3 481.7 463.7 496.3 491 493.8C518.3 491.3 545.7 471.7 573 468C600.3 464.3 627.7 476.7 654.8 483.8C682 491 709 493 736.2 499.5C763.3 506 790.7 517 818 509.5C845.3 502 872.7 476 886.3 463L900 450L900 601L886.3 601C872.7 601 845.3 601 818 601C790.7 601 763.3 601 736.2 601C709 601 682 601 654.8 601C627.7 601 600.3 601 573 601C545.7 601 518.3 601 491 601C463.7 601 436.3 601 409 601C381.7 601 354.3 601 327 601C299.7 601 272.3 601 245.2 601C218 601 191 601 163.8 601C136.7 601 109.3 601 82 601C54.7 601 27.3 601 13.7 601L0 601Z" fill="#008668"></path><path d="M0 575L13.7 566.5C27.3 558 54.7 541 82 532.2C109.3 523.3 136.7 522.7 163.8 526.5C191 530.3 218 538.7 245.2 540.8C272.3 543 299.7 539 327 543C354.3 547 381.7 559 409 564C436.3 569 463.7 567 491 558.7C518.3 550.3 545.7 535.7 573 532.7C600.3 529.7 627.7 538.3 654.8 537.7C682 537 709 527 736.2 522.7C763.3 518.3 790.7 519.7 818 524.5C845.3 529.3 872.7 537.7 886.3 541.8L900 546L900 601L886.3 601C872.7 601 845.3 601 818 601C790.7 601 763.3 601 736.2 601C709 601 682 601 654.8 601C627.7 601 600.3 601 573 601C545.7 601 518.3 601 491 601C463.7 601 436.3 601 409 601C381.7 601 354.3 601 327 601C299.7 601 272.3 601 245.2 601C218 601 191 601 163.8 601C136.7 601 109.3 601 82 601C54.7 601 27.3 601 13.7 601L0 601Z" fill="#009473"></path></svg>